<?xml version="1.0" encoding="UTF-8" standalone="no"?>
<svg
   xmlns:dc="http://purl.org/dc/elements/1.1/"
   xmlns:cc="http://creativecommons.org/ns#"
   xmlns:rdf="http://www.w3.org/1999/02/22-rdf-syntax-ns#"
   xmlns:svg="http://www.w3.org/2000/svg"
   xmlns="http://www.w3.org/2000/svg"
   xmlns:sodipodi="http://sodipodi.sourceforge.net/DTD/sodipodi-0.dtd"
   xmlns:inkscape="http://www.inkscape.org/namespaces/inkscape"
   data-name="Слой 1"
   viewBox="0 0 57.771946 93.589645"
   x="0px"
   y="0px"
   version="1.1"
   id="svg46"
   sodipodi:docname="lemonade.svg"
   width="57.771946"
   height="93.589645"
   inkscape:version="0.92.2 2405546, 2018-03-11"
   inkscape:export-filename="/home/naim/favicon.png"
   inkscape:export-xdpi="172.8"
   inkscape:export-ydpi="172.8">
  <metadata
     id="metadata52">
    <rdf:RDF>
      <cc:Work
         rdf:about="">
        <dc:format>image/svg+xml</dc:format>
        <dc:type
           rdf:resource="http://purl.org/dc/dcmitype/StillImage" />
        <dc:title>лимонад</dc:title>
      </cc:Work>
    </rdf:RDF>
  </metadata>
  <defs
     id="defs50" />
  <sodipodi:namedview
     pagecolor="#ffffff"
     bordercolor="#666666"
     borderopacity="1"
     objecttolerance="10"
     gridtolerance="10"
     guidetolerance="10"
     inkscape:pageopacity="0"
     inkscape:pageshadow="2"
     inkscape:window-width="657"
     inkscape:window-height="706"
     id="namedview48"
     showgrid="false"
     inkscape:zoom="2.8284271"
     inkscape:cx="41.426875"
     inkscape:cy="49.753895"
     inkscape:window-x="691"
     inkscape:window-y="44"
     inkscape:window-maximized="0"
     inkscape:current-layer="svg46"
     fit-margin-top="0"
     fit-margin-left="0"
     fit-margin-right="0"
     fit-margin-bottom="0"
     inkscape:snap-bbox="false"
     inkscape:bbox-nodes="true"
     inkscape:snap-bbox-edge-midpoints="true"
     inkscape:snap-object-midpoints="true"
     inkscape:snap-center="true" />
  <title
     id="title2">лимонад</title>
  <g
     id="g44"
     transform="matrix(1.0995661,0,0,1.0995661,-26.079325,-8.1868938)">
    <path
       d="m 74.81342,54.71357 c -0.496,0.84829 0.03676,1.5571 0.22545,2.26012 a 8.05459,8.05459 0 0 1 0.479,2.37574 11.75408,11.75408 0 0 0 0.40744,2.08519 33.62891,33.62891 0 0 1 0.32671,3.84076 c 0.07214,1.56377 -0.48069,3.01286 -0.49772,4.54535 a 6.68733,6.68733 0 0 1 -0.45284,2.0808 c -0.23317,0.66485 0.024,1.352 -0.2541,2.01542 a 25.21921,25.21921 0 0 0 -0.87547,3.50443 77.66331,77.66331 0 0 1 -2.53448,7.42553 14.0229,14.0229 0 0 1 -1.53172,3.16643 1.67175,1.67175 0 0 0 -0.35617,1.02731 1.78632,1.78632 0 0 1 -1.01497,1.23335 11.55625,11.55625 0 0 1 -4.62877,1.73719 32.32357,32.32357 0 0 1 -4.90762,0.49123 36.9282,36.9282 0 0 1 -4.65511,-0.03219 c -1.31539,-0.10521 -2.624,-0.32851 -3.93463,-0.36055 -1.10568,-0.027 -1.9726,-0.678 -3.00238,-0.84257 a 1.68418,1.68418 0 0 0 -0.40428,-0.12128 c -1.1816,0.17463 -1.47435,-0.8093 -1.85564,-1.5256 -0.72223,-1.3567 -1.2816,-2.79907 -1.96869,-4.17591 A 23.2317,23.2317 0 0 0 41.90119,82.6506 33.71558,33.71558 0 0 1 40.23951,79.02214 c -0.12888,-0.24674 -0.286,-0.48293 -0.41079,-0.73473 a 26.39749,26.39749 0 0 1 -2.2215,-7.35651 14.37048,14.37048 0 0 1 -0.34975,-2.40995 0.86743,0.86743 0 0 0 -0.66785,-0.67957 14.00949,14.00949 0 0 1 -3.604,-2.67033 C 32.21149,64.49648 31.33084,63.94079 30.60403,63.20024 A 25.23994,25.23994 0 0 1 26.313,57.56608 c -1,-1.8447 -1.1807,-3.90208 -1.77,-5.85108 a 23.44188,23.44188 0 0 1 -0.74372,-8.11732 26.90664,26.90664 0 0 1 1.24353,-7.32486 8.6543,8.6543 0 0 1 3.51933,-4.61751 3.03192,3.03192 0 0 0 0.57177,-0.43673 4.70491,4.70491 0 0 1 3.249,-1.26194 12.01627,12.01627 0 0 1 4.30458,0.05547 10.22887,10.22887 0 0 1 5.379,3.228 20.0388,20.0388 0 0 1 1.99707,2.10467 6.16218,6.16218 0 0 0 -0.86,-2.74156 10.01534,10.01534 0 0 1 -1.31556,-3.37971 0.88639,0.88639 0 0 1 0.182,-0.88725 c 1.36631,-1.2955 2.70727,-2.635 4.6707,-3.00968 a 0.60064,0.60064 0 0 0 0.55093,-0.87135 c -0.35441,-1.626 -0.58093,-3.27941 -0.903,-4.91311 -0.225,-1.14148 -0.53772,-2.2654 -0.78681,-3.40251 -0.30527,-1.39357 -0.56037,-2.79855 -0.888,-4.18661 A 4.65,4.65 0 0 0 44.24965,10.264 1.00231,1.00231 0 0 1 44.46309,9.07818 3.51921,3.51921 0 0 1 47.55637,7.4477 c 1.24763,0.08023 1.54,0.41367 1.664,1.81622 a 17.65093,17.65093 0 0 0 0.97543,4.254 12.40176,12.40176 0 0 1 0.66211,3.5303 16.11416,16.11416 0 0 0 0.61,4.608 8.03724,8.03724 0 0 1 0.21123,1.80809 c 0.05227,0.53816 0.13093,0.84849 0.86952,0.65715 a 26.22208,26.22208 0 0 1 8.28877,-0.70428 31.65168,31.65168 0 0 1 5.07859,0.68593 13.44167,13.44167 0 0 1 4.80643,2.13413 15.43583,15.43583 0 0 0 2.4171,0.84321 c 0.94964,0.43958 1.07373,0.624 0.70483,1.59166 -0.25384,0.66583 -0.71244,1.26057 -0.92443,1.89453 -0.51169,1.53 -1.23356,2.98679 -1.60306,4.56531 a 25.21949,25.21949 0 0 0 -0.699,3.1705 11.48743,11.48743 0 0 0 0.40033,5.36239 c 0.64133,1.69255 1.01276,3.46384 1.518,5.19606 0.502,1.72091 1.05744,3.42618 1.58755,5.1389 0.11075,0.3572 0.16544,0.75828 0.68965,0.71377 z m -5.95352,9.74048 a 5.33753,5.33753 0 0 0 0.85189,-0.46446 11.49031,11.49031 0 0 0 2.7889,-0.70351 0.58344,0.58344 0 0 0 0.50606,-0.54372 C 73.24104,62.00629 72.77117,61.38197 72.69111,60.69392 72.50875,59.12651 72.42152,59.14518 70.779,59.49977 a 0.9833,0.9833 0 0 0 -0.84482,0.53582 6.80828,6.80828 0 0 1 -2.93948,3.34655 c -0.94621,0.51281 -1.79144,1.24775 -2.98363,1.20658 a 0.86652,0.86652 0 0 0 -0.8496,0.76834 c -0.52178,1.67155 -0.7676,3.47391 -2.06215,4.82961 a 0.86544,0.86544 0 0 0 -0.04077,1.111 6.111,6.111 0 0 1 0.63105,1.6094 c 0.12891,0.5413 0.41314,0.48137 0.70673,0.25747 0.657,-0.501 1.30115,-1.02453 1.907,-1.58582 0.79672,-0.73809 1.16886,-0.71992 1.93025,0.10018 a 1.50792,1.50792 0 0 0 1.88321,0.6547 10.28315,10.28315 0 0 1 2.44746,-0.42218 c 0.18156,-0.03586 0.31873,-0.29479 0.54375,-0.079 0.03947,0.03785 0.14053,0.13013 0.04263,0.12134 -0.30812,-0.02765 -0.21805,0.49814 -0.66662,0.36254 a 5.53083,5.53083 0 0 0 -2.32467,0.1989 c -0.81111,0.106 -0.92521,0.41128 -0.55686,1.12328 0.14545,0.28115 0.18282,0.599 0.30391,0.85455 0.20093,0.424 -0.18068,1.06159 0.27022,1.23435 0.40878,0.15662 0.84574,-0.36337 1.33811,-0.40952 0.09711,-0.0091 0.48009,-0.10647 0.17284,-0.43895 -0.20587,-0.22276 0.05818,-0.2402 0.21892,-0.28157 0.15749,-0.04057 0.28585,-0.146 0.36339,0.128 a 0.69111,0.69111 0 0 1 -0.66124,0.93729 6.04134,6.04134 0 0 0 -0.95644,0.28079 0.84176,0.84176 0 0 0 -0.747,0.837 5.40811,5.40811 0 0 1 -1.43653,4.282 c 1.00063,-0.02928 1.80475,-0.49237 2.77854,-0.45642 a 2.41923,2.41923 0 0 1 -1.1952,0.426 3.76841,3.76841 0 0 0 -2.7186,1.23675 5.88089,5.88089 0 0 1 -0.67659,0.70339 c -0.79388,0.67987 -0.79928,0.67354 -0.29952,1.6345 a 1.90492,1.90492 0 0 1 -0.25121,2.34251 6.11256,6.11256 0 0 1 -1.32256,0.94223 c -1.18879,0.60753 -1.91318,0.221 -2.12844,-1.07544 -0.25091,-1.51135 -1.01317,-2.027 -2.5095,-1.72615 a 1.58725,1.58725 0 0 1 -0.78927,-0.0098 c -1.58558,-0.54486 -3.21811,-0.94253 -4.367,-2.38724 a 0.93709,0.93709 0 0 1 -0.1115,-1.35022 7.67713,7.67713 0 0 1 1.74639,-1.76837 c 1.13974,-0.80252 2.08721,-1.82979 3.25188,-2.57988 a 0.62085,0.62085 0 0 0 0.247,-0.90889 5.22532,5.22532 0 0 1 -0.69192,-2.003 c -0.10823,-0.277 -0.26783,-0.48493 -0.48615,-0.38253 -0.30044,0.141 -0.6142,0.064 -0.90522,0.19075 a 6.96533,6.96533 0 0 1 -4.6001,0.018 11.4602,11.4602 0 0 1 -5.55618,-3.27608 10.22954,10.22954 0 0 1 -2.18667,-3.86469 2.79538,2.79538 0 0 1 -0.21613,-1.12145 c 0.12983,-2.37847 -0.0094,-4.827 1.6393,-6.82886 a 12.779,12.779 0 0 1 1.525,-2.17983 10.24514,10.24514 0 0 1 4.5468,-2.56425 9.19163,9.19163 0 0 0 2.0749,-0.49048 c 0.22187,-0.09689 0.37893,-0.12186 0.29588,-0.4316 C 53.1835,51.73761 52.89065,50.30665 52.63615,48.863 A 29.60123,29.60123 0 0 0 51.573,43.99886 0.8078,0.8078 0 0 0 51.07554,43.28419 C 50.4458,43.16395 49.80542,43.09991 49.17022,43.00756 a 4.18917,4.18917 0 0 1 -2.37351,-0.88168 c -0.56426,-0.51418 -0.55813,-0.50547 -0.77395,0.25941 -0.36738,1.30211 -0.40981,2.6717 -0.861,3.95857 -0.55838,1.59259 -1.28086,3.12313 -1.82614,4.71508 -0.6163,1.79924 -1.22584,3.60077 -1.844,5.39958 a 13.12855,13.12855 0 0 0 -0.88426,3.992 14.803,14.803 0 0 1 -0.28788,2.91111 16.2007,16.2007 0 0 0 0.15727,6.45188 37.25238,37.25238 0 0 0 1.62791,5.44865 22.9256,22.9256 0 0 0 1.45407,3.94428 c 1.06014,1.88551 1.8948,3.877 2.84835,5.812 0.80309,1.62974 1.76915,3.18088 3.58419,3.74917 A 19.10846,19.10846 0 0 0 56.1387,89.791 c 1.592,-0.03647 3.18592,-0.02665 4.77594,-0.10148 a 22.262,22.262 0 0 0 3.21822,-0.343 4.599,4.599 0 0 0 3.1588,-2.41811 33.20963,33.20963 0 0 0 2.37334,-5.02786 25.31433,25.31433 0 0 1 1.16772,-3.04835 7.32385,7.32385 0 0 0 0.55391,-1.36819 c 0.33137,-1.21434 0.5587,-2.4593 0.93259,-3.65929 a 24.21788,24.21788 0 0 0 1.05018,-6.77249 c 0.01388,-0.70174 -0.372,-0.93637 -1.03812,-0.73993 -0.31871,0.094 -0.28782,0.48334 -0.6185,0.62177 0.01833,-0.43433 -0.23279,-0.51079 -0.57742,-0.46293 -1.02661,0.14257 -2.05565,0.26886 -3.07977,0.42725 a 2.04068,2.04068 0 0 1 -0.94111,0.01079 c 1.52842,-0.6069 3.32937,-0.37845 4.90688,-1.14942 0.15884,-0.07765 0.16147,0.13518 0.24614,0.18244 0.38229,0.21331 0.99395,0.0337 0.91726,-0.256 a 7.94486,7.94486 0 0 1 -0.10772,-1.5126 0.4338,0.4338 0 0 0 -0.62676,-0.45183 9.87884,9.87884 0 0 1 -1.38945,0.33288 c -0.74089,0.08003 -1.35776,0.69389 -2.20093,0.3994 z M 37.47706,61.26354 a 3.32733,3.32733 0 0 1 0.11148,-1.2399 c 0.293,-1.238 0.49081,-2.50457 0.87505,-3.71249 a 10.95823,10.95823 0 0 1 0.52408,-1.91479 c 0.71179,-1.3373 0.92787,-2.85189 1.6263,-4.21274 0.8624,-1.6803 1.35149,-3.53886 2.24349,-5.22471 0.73223,-1.38395 1.54758,-2.73262 0.13192,-4.29543 -1.05178,-1.16112 -1.80913,-2.58365 -2.9826,-3.66455 a 4.655,4.655 0 0 0 -3.54026,-1.28139 7.09384,7.09384 0 0 0 -5.5971,2.87964 9.32348,9.32348 0 0 0 -1.6039,2.98986 c -0.2874,1.17053 -0.33931,2.35987 -0.51559,3.53575 a 10.50819,10.50819 0 0 0 0.36627,4.993 19.73762,19.73762 0 0 0 2.94049,5.86109 22.67623,22.67623 0 0 0 5.42037,5.28666 z M 44.08415,40.862 a 3.183,3.183 0 0 0 0.37814,-1.76813 3.65291,3.65291 0 0 0 -0.80787,-2.99343 c -0.83387,-0.93737 -1.74177,-1.789 -2.61759,-2.67725 A 8.46616,8.46616 0 0 0 34.92977,30.75 c -0.556,-0.0072 -1.11261,0.02845 -1.66862,0.02076 a 7.82346,7.82346 0 0 0 -2.3776,0.4281 8.76571,8.76571 0 0 0 -1.80806,1.26152 7.8256,7.8256 0 0 0 -3.12949,3.82251 17.65249,17.65249 0 0 0 -1.24482,5.75587 38.45947,38.45947 0 0 0 -0.08281,5.27089 19.41225,19.41225 0 0 0 0.36611,3.13044 c 0.23168,1.06332 0.59966,2.09176 0.82695,3.16091 a 14.71674,14.71674 0 0 0 0.80249,2.648 20.75568,20.75568 0 0 0 3.86008,5.67043 c 1.15874,1.29742 2.6824,2.19983 3.8511,3.47814 a 7.94027,7.94027 0 0 0 2.84149,1.64649 12.99885,12.99885 0 0 1 -0.059,-3.9557 2.16068,2.16068 0 0 0 -0.99891,-1.94718 27.0565,27.0565 0 0 1 -2.78,-2.42425 21.315,21.315 0 0 1 -4.81816,-7.89042 10.91522,10.91522 0 0 1 -0.69125,-4.007 30.05955,30.05955 0 0 1 0.264,-3.14258 11.91638,11.91638 0 0 1 0.65033,-3.29373 9.81788,9.81788 0 0 1 3.02356,-3.942 8.28755,8.28755 0 0 1 5.23315,-1.57894 4.38023,4.38023 0 0 1 3.39928,1.5042 5.34484,5.34484 0 0 0 0.51793,0.50679 0.28651,0.28651 0 0 0 0.37458,0.11239 0.34343,0.34343 0 0 0 0.18232,-0.36169 0.58035,0.58035 0 0 1 0.27565,-0.7518 2.12677,2.12677 0 0 0 0.50119,2.44909 c 0.69606,0.76485 1.09205,1.7593 1.84289,2.54076 z M 42.94383,30.06049 a 5.23439,5.23439 0 0 0 0.65,1.98618 2.89849,2.89849 0 0 1 0.78071,1.18833 25.73761,25.73761 0 0 1 0.84917,4.94261 16.71685,16.71685 0 0 1 -0.93111,5.18511 56.771,56.771 0 0 1 -2.33428,5.447 43.2825,43.2825 0 0 0 -2.5284,6.87665 46.8551,46.8551 0 0 0 -1.61393,8.80176 28.43263,28.43263 0 0 0 0.27842,5.18776 29.20522,29.20522 0 0 0 1.10519,4.66291 35.41,35.41 0 0 0 1.76463,4.62933 c 0.24643,0.51709 0.82624,0.672 0.99684,1.29175 a 12.75085,12.75085 0 0 0 1.31835,3.18788 28.73757,28.73757 0 0 1 1.83368,3.94034 4.13919,4.13919 0 0 1 0.44819,1.03469 1.92862,1.92862 0 0 0 1.453,1.73747 21.22812,21.22812 0 0 0 4.45983,1.20768 c 1.90875,0.11932 3.81288,0.42012 5.73064,0.42647 a 28.66572,28.66572 0 0 0 7.996,-0.96322 c 1.56946,-0.446 2.98005,-0.84411 3.81461,-2.55733 0.7642,-1.56884 1.63388,-3.07248 2.26042,-4.72432 0.98723,-2.60272 1.84972,-5.23338 2.57574,-7.91972 0.41876,-1.5494 0.404,-3.16968 0.87978,-4.69287 a 21.66409,21.66409 0 0 0 0.65279,-3.92647 17.605,17.605 0 0 0 -0.17495,-5.64737 6.36881,6.36881 0 0 1 -0.371,-2.12246 c 0.043,-0.32245 -0.123,-0.65348 -0.33851,-0.59491 a 2.24007,2.24007 0 0 0 -1.29045,0.32353 0.26015,0.26015 0 0 0 0.04839,0.11684 c 0.3107,0.59119 -0.17638,1.47669 0.69221,1.86662 0.11547,0.05181 0.0805,0.16583 -0.0206,0.21726 -0.26838,0.13655 -0.13964,0.37843 -0.163,0.57782 a 21.7,21.7 0 0 0 0.25529,4.57318 21.98479,21.98479 0 0 1 -0.06634,3.16856 18.75535,18.75535 0 0 1 -0.7225,3.65553 37.018,37.018 0 0 1 -1.95364,6.52072 c -0.77531,1.67514 -1.23062,3.48215 -2.13735,5.10711 -0.5571,0.99843 -1.03712,2.04076 -1.53084,3.07336 a 3.745,3.745 0 0 1 -1.61359,1.63393 c -1.48853,0.84174 -3.18677,0.72064 -4.80219,0.93533 -1.50753,0.20034 -3.04331,0.02911 -4.56488,0.21814 A 10.064,10.064 0 0 1 53.482,90.4021 a 25.64152,25.64152 0 0 1 -3.0568,-0.69555 6.27161,6.27161 0 0 1 -3.06575,-1.65849 13.35558,13.35558 0 0 1 -1.92,-3.16731 c -1.03794,-2.17326 -2.30094,-4.258 -3.1385,-6.50334 a 49.7026,49.7026 0 0 1 -2.74726,-9.30879 13.462,13.462 0 0 1 -0.19,-3.91877 c 0.15472,-1.18117 0.31106,-2.36282 0.42931,-3.548 a 18.22888,18.22888 0 0 1 1.35766,-6.10867 22.8888,22.8888 0 0 0 1.18308,-3.80951 28.0331,28.0331 0 0 1 1.37445,-3.44482 26.1608,26.1608 0 0 0 1.47089,-5.41792 4.52647,4.52647 0 0 1 1.20578,-2.878 A 6.888,6.888 0 0 1 49.77263,38.5 c 0.229,-0.04529 0.36744,0.0057 0.29311,-0.36637 -0.31926,-1.59859 -0.643,-3.19017 -1.05731,-4.77159 -0.25352,-0.96771 -0.33408,-1.58276 -1.59418,-1.78414 a 11.14643,11.14643 0 0 1 -4.47042,-1.51741 z m 25.86744,10.53732 c -0.28314,0.09992 -0.56858,0.1939 -0.84815,0.30294 a 1.74293,1.74293 0 0 0 -0.28015,0.17386 c 0.492,0.42346 -0.09673,0.81915 -0.03382,1.23655 0.04924,0.32675 0.07994,0.70535 0.52761,0.54332 0.54653,-0.1978 1.30562,0.05462 1.60007,-0.70821 0.0045,-0.01171 -0.03876,-0.03657 -0.04016,-0.05666 a 13.84463,13.84463 0 0 1 0.29167,-5.03269 c 0.05669,-0.18831 0.23094,-0.43889 -0.02176,-0.57578 a 0.79344,0.79344 0 0 0 -0.6068,0.06792 6.435,6.435 0 0 1 -1.23137,0.18569 3.20945,3.20945 0 0 1 1.557,-0.58118 0.47384,0.47384 0 0 0 0.57763,-0.45975 c 0.203,-0.90609 0.48071,-1.79684 0.75725,-2.68475 0.42253,-1.35657 1.0608,-2.629 1.61,-3.93921 -0.67894,-0.33281 -1.1862,0.305 -1.867,0.218 a 5.566,5.566 0 0 0 -2.42783,0.44869 31.48866,31.48866 0 0 1 -4.18665,1.11406 c -2.44333,0.481 -4.95186,0.47738 -7.40711,0.87546 -1.19541,0.19382 -2.39687,0.10228 -3.58053,0.21251 0.31832,1.735 0.84039,3.40187 1.03093,5.13833 a 0.74942,0.74942 0 0 0 0.92527,0.77829 c 1.66854,-0.10257 3.34258,-0.12548 5.014,-0.19083 a 14.25638,14.25638 0 0 1 4.91189,0.9807 c 1.06758,0.34516 2.0651,0.61761 2.46747,1.81469 0.05837,0.17372 0.39581,0.10917 0.42691,0.03583 0.31189,-0.73538 0.54068,0.03333 0.83363,0.10222 z M 72.46268,27.94637 A 0.54709,0.54709 0 0 0 71.997,27.6112 7.06878,7.06878 0 0 1 68.92282,26.17 C 68.72348,26.04933 68.5037,25.94992 68.29058,25.84872 a 19.74143,19.74143 0 0 0 -7.33592,-1.58014 32.37312,32.37312 0 0 0 -8.35406,0.57056 0.82819,0.82819 0 0 0 -0.83045,1.01976 c 0.32278,1.32049 0.42491,2.67169 0.62207,4.00973 0.06144,0.41687 0.06137,1.13443 0.7295,1.15345 a 22.00294,22.00294 0 0 0 3.75651,-0.09332 c 1.631,-0.23593 3.26935,-0.38913 4.901,-0.605 a 42.10911,42.10911 0 0 0 4.19923,-0.7915 c 1.44061,-0.34172 2.81623,-0.90881 4.30073,-1.11449 a 4.4849,4.4849 0 0 0 2.18349,-0.4714 z m -7.98335,16.2979 -0.06354,-0.14059 c 0.62154,-0.21137 1.23807,-0.43958 1.867,-0.62615 0.26875,-0.07973 0.61232,-0.04147 0.6458,-0.4155 a 1.61643,1.61643 0 0 0 -0.218,-1.23407 0.85192,0.85192 0 0 0 -0.73431,0.29854 0.85137,0.85137 0 0 1 -0.39582,0.14406 c -1.79545,0.24032 -3.4887,0.9339 -5.32816,1.05427 a 33.89047,33.89047 0 0 1 -3.95446,-0.02786 c -0.99938,-0.05091 -1.15557,0.0044 -0.8479,0.94788 0.62853,1.92737 0.79908,3.96186 1.41537,5.89068 0.0648,0.20284 0.03511,0.50744 0.26643,0.5395 a 0.73349,0.73349 0 0 0 0.59728,-0.32888 4.46055,4.46055 0 0 1 2.20115,-1.39152 13.19129,13.19129 0 0 1 3.88721,-0.52532 7.73174,7.73174 0 0 1 5.20979,2.51769 c 1.13214,1.32674 1.08452,2.99625 1.5235,4.52437 0.04669,0.16257 -0.17092,0.46811 0.09359,0.51853 A 1.45582,1.45582 0 0 0 71.442,55.82484 0.48975,0.48975 0 0 0 71.60305,55.2529 3.02532,3.02532 0 0 0 71.08771,54.16475 c -0.60748,-1.29841 -0.85441,-2.73493 -1.55541,-3.98653 -0.35877,-0.6406 -0.21723,-1.714 -1.47882,-1.73013 0.69865,-0.08364 0.57964,-0.40165 0.30622,-0.74152 a 2.53322,2.53322 0 0 1 -0.56515,-1.21308 c -0.0925,-0.69213 -0.45713,-0.59271 -0.94667,-0.52517 a 5.20562,5.20562 0 0 1 -2.00864,0.3723 2.16456,2.16456 0 0 1 1.20971,-0.42533 c 1.37344,0.05283 1.76286,-0.4587 1.32554,-1.59342 A 3.53462,3.53462 0 0 1 67.13828,43.96671 C 67.03723,43.51678 66.8109,43.57726 66.45845,43.69776 65.812,43.91873 65.14041,44.06617 64.47933,44.24427 Z M 44.36728,64.82591 c 0.086,0.40724 -0.06966,1.102 0.08357,1.80022 a 7.80929,7.80929 0 0 0 2.94,4.5017 10.2921,10.2921 0 0 0 6.65325,2.42327 12.59614,12.59614 0 0 0 3.93551,-0.94821 3.37564,3.37564 0 0 0 1.32539,-1.02489 21.97722,21.97722 0 0 0 1.71441,-2.34946 2.5316,2.5316 0 0 0 0.82749,-1.344 3.20214,3.20214 0 0 1 0.23987,-1.09033 9.42622,9.42622 0 0 0 -0.03994,-6.59077 c -0.24829,-0.64451 -0.59959,-1.23634 -0.867,-1.87288 A 5.95041,5.95041 0 0 0 58.4634,55.26117 13.16493,13.16493 0 0 0 56.28399,54.6813 c -2.09015,-0.71443 -4.13574,-0.09946 -6.06355,0.53927 a 9.14642,9.14642 0 0 0 -4.90771,4.58016 5.11833,5.11833 0 0 0 -0.75335,1.52443 13.40233,13.40233 0 0 0 -0.1921,3.50075 z M 60.33415,42.67178 a 10.351,10.351 0 0 0 2.473,-0.723 11.24356,11.24356 0 0 1 3.11461,-0.93616 0.61935,0.61935 0 0 0 0.52941,-0.50609 0.56852,0.56852 0 0 0 -0.43011,-0.66158 34.35043,34.35043 0 0 0 -3.28629,-1.09794 c -2.53438,-0.59964 -5.131,-0.12584 -7.69284,-0.32808 a 0.42841,0.42841 0 0 0 -0.51405,0.51691 c -3e-4,1.11238 0.46824,2.1517 0.48385,3.25781 0.0041,0.28958 0.19453,0.24678 0.3833,0.29416 a 20.20349,20.20349 0 0 0 4.93912,0.18397 z m -4.59774,37.835 a 1.20854,1.20854 0 0 1 -0.1203,0.99717 0.45408,0.45408 0 0 0 0.13587,0.73832 6.68054,6.68054 0 0 0 2.87143,0.98216 6.95691,6.95691 0 0 0 3.11749,-0.93684 8.26651,8.26651 0 0 0 3.11388,-2.59834 5.61341,5.61341 0 0 0 1.06153,-3.53773 8.92313,8.92313 0 0 0 -1.01138,-3.62087 c -0.07818,-0.16879 -0.19449,-0.39058 -0.43013,-0.26592 -0.24,0.127 -0.01152,0.31232 0.04089,0.42705 a 1.97063,1.97063 0 0 1 -0.49546,2.16738 c -0.14608,0.18824 -0.53453,0.25407 -0.37843,0.58582 0.12906,0.27435 0.437,0.11242 0.66284,0.12693 a 0.72625,0.72625 0 0 1 0.70413,1.12716 3.92826,3.92826 0 0 0 -0.366,0.92224 0.7813,0.7813 0 0 1 -0.71078,0.59965 c -1.32619,0.284 -2.17658,-0.524 -3.03092,-1.27875 -0.30824,-0.27234 -0.0097,-0.54261 0.24835,-0.75461 a 2.11372,2.11372 0 0 0 0.7723,-0.446 1.64425,1.64425 0 0 0 -2.07041,0.46519 3.2648,3.2648 0 0 1 -0.594,0.59059 c -0.44295,0.34592 -0.0855,0.52611 0.16385,0.53953 a 3.56431,3.56431 0 0 1 2.68,1.82882 1.35091,1.35091 0 0 1 0.28329,1.36712 1.5771,1.5771 0 0 1 -1.70547,0.76825 1.48806,1.48806 0 0 1 -0.98093,-1.59 c -0.5416,0.88339 0.1342,1.68525 0.05408,2.50592 -0.01976,0.20224 0.24322,0.543 -0.05794,0.5944 -0.31636,0.05395 -0.4079,-0.314 -0.41435,-0.61412 -0.0091,-0.42357 -0.0139,-0.84725 -0.0212,-1.31219 -0.61082,0.13993 -0.68046,0.75225 -1.19975,0.95445 a 1.48377,1.48377 0 0 1 -1.4657,-0.05094 c -1.28793,-0.80051 -0.1986,-1.70848 -0.08613,-2.60841 a 7.79326,7.79326 0 0 0 -1.69232,1.3275 1,1 0 0 0 -0.56726,0.67445 0.93361,0.93361 0 0 0 0.77985,0.454 0.8093,0.8093 0 0 1 0.70907,-1.12937 z M 53.818,43.24624 A 4.74094,4.74094 0 0 0 52.608,43.39 c -0.44428,-0.02494 -0.4821,0.10266 -0.38887,0.54762 a 30.80343,30.80343 0 0 1 0.77443,3.40726 47.20178,47.20178 0 0 0 1.19152,5.78234 1.33345,1.33345 0 0 0 1.77169,0.28915 2.47624,2.47624 0 0 0 0.4665,-2.34963 34.827,34.827 0 0 1 -1.01943,-4.38317 C 55.24817,45.81224 54.86,44.99695 54.78815,44.13 54.73023,43.43165 54.57914,43.05694 53.818,43.24624 Z M 63.99123,52.791 a 14.0348,14.0348 0 0 0 -0.86584,2.44014 0.40125,0.40125 0 0 1 -0.72878,0.17814 7.719,7.719 0 0 1 -1.51224,-2.07214 2.34385,2.34385 0 0 1 -0.086,-0.57988 3.27684,3.27684 0 0 1 0.54672,-1.80646 1.0666,1.0666 0 0 0 -0.42066,0.01353 c -1.15,0.70906 -2.77555,0.88138 -2.98526,2.672 -0.02235,0.19085 -0.44434,0.36442 -0.0064,0.53885 0.28573,0.1138 0.49675,0.11361 0.64237,-0.32507 a 1.04345,1.04345 0 0 1 1.60356,-0.56869 8.41609,8.41609 0 0 1 1.68176,2.11006 0.49494,0.49494 0 0 1 -0.25272,0.77412 c -0.22083,0.08069 -0.66131,0.09135 -0.5,0.41743 a 1.19156,1.19156 0 0 0 0.82563,0.88783 1.28787,1.28787 0 0 1 0.988,1.95742 0.79811,0.79811 0 0 0 -0.07352,0.84263 3.47628,3.47628 0 0 1 0.33026,1.66277 0.59432,0.59432 0 0 0 0.60236,0.72761 1.01958,1.01958 0 0 0 1.08863,-1.01194 0.5634,0.5634 0 0 0 -0.70218,-0.42268 c -0.38792,0.02425 -0.524,-0.15879 -0.41164,-0.45935 a 2.75794,2.75794 0 0 0 -0.13667,-2.04367 1.41714,1.41714 0 0 1 0.57952,-1.42993 2.68878,2.68878 0 0 1 2.85769,2.17714 c 0.01066,0.17451 -0.09736,0.40987 0.15478,0.50395 a 0.4537,0.4537 0 0 0 0.50411,-0.20412 6.12676,6.12676 0 0 0 0.87681,-2.45911 0.35332,0.35332 0 0 0 -0.16324,-0.294 0.32071,0.32071 0 0 0 -0.29977,0.086 2.51692,2.51692 0 0 1 -0.93168,0.77236 0.82823,0.82823 0 0 1 0.24355,0.32588 c 0.0065,0.17161 0.41328,0.24641 0.1247,0.44452 A 0.369,0.369 0 0 1 67.0617,58.4897 0.42668,0.42668 0 0 1 66.9154,58.03387 c 0.19281,-0.33636 -0.04336,-0.30577 -0.252,-0.38272 A 4.377,4.377 0 0 0 65.85982,57.38299 0.72492,0.72492 0 0 1 65.15948,56.8573 c 0.04121,-0.74447 -0.328,-0.43119 -0.66695,-0.34879 -0.5026,0.12221 -0.824,0.04154 -0.75122,-0.61837 0.09,-0.8164 0.49364,-1.54061 0.60882,-2.34837 A 0.5374,0.5374 0 0 0 63.99123,52.791 Z m 7.14487,-4.92983 c -1.31121,0.2091 -0.99459,0.83205 -0.83411,1.54791 a 20.0587,20.0587 0 0 0 1.18346,3.43083 c 0.30171,0.71162 0.6338,1.41163 0.9123,2.13612 0.09108,0.237 0.18341,0.55647 0.62716,0.33166 0.2979,-0.15091 0.53711,-0.152 0.51311,-0.62442 a 6.36832,6.36832 0 0 0 -0.44883,-1.41843 c -0.37013,-1.361 -0.79826,-2.70255 -1.21891,-4.04808 -0.55927,-1.78894 -1.05651,-3.59791 -1.54818,-5.407 -0.1787,-0.65748 -0.354,-1.19105 -1.2126,-0.83127 -0.25714,0.10774 -0.55565,0.11255 -0.82591,0.195 -0.14824,0.04518 -0.41949,0.15227 -0.3056,0.31491 0.44764,0.63927 -0.07844,1.7721 1.11261,2.02431 -0.23713,0.13764 -0.58088,0.013 -0.533,0.40385 a 3.96628,3.96628 0 0 0 1.00436,2.13159 2.15654,2.15654 0 0 1 0.17424,-0.82843 c 0.05812,0.91163 0.7662,0.32698 1.3999,0.64146 z M 53.79864,38.51826 c -0.0044,-0.27874 -0.0026,-0.35119 -0.0071,-0.42326 -0.08963,-1.44806 -0.6254,-2.81145 -0.80635,-4.24448 -0.05846,-0.46284 -0.37618,-0.507 -0.712,-0.20167 a 4.15063,4.15063 0 0 1 -1.96892,1.22179 c -0.203,0.03863 -0.1899,0.18526 -0.15953,0.33031 0.35863,1.7136 0.71271,3.42822 1.08805,5.13816 a 0.42729,0.42729 0 0 0 0.51628,0.44367 3.94531,3.94531 0 0 0 2.04954,-2.26452 z m -3.80219,-18.9657 c -0.78292,0.71982 -1.27129,1.59921 -2.27582,1.866 -0.24029,0.0638 -0.15678,0.27193 -0.1298,0.4217 a 41.86261,41.86261 0 0 0 1.0405,5.23439 c 0.35107,1.11307 0.3581,1.10943 1.196,0.357 a 1.93308,1.93308 0 0 0 0.34036,-0.26249 c 0.314,-0.46462 0.92213,-0.912 0.805,-1.44947 A 29.02345,29.02345 0 0 1 49.99645,19.55256 Z M 46.43719,16.1809 c 0.30457,1.50034 0.58943,2.84595 0.84454,4.19717 0.07207,0.38182 0.32376,0.32835 0.53749,0.2615 A 3.91166,3.91166 0 0 0 49.79528,17.0504 C 49.73861,16.8405 49.7086,16.6325 49.66577,16.42324 a 14.329,14.329 0 0 0 -0.4832,-2.57664 0.92838,0.92838 0 0 0 -0.3916,-0.55021 0.67513,0.67513 0 0 0 -0.5869,0.45474 6.45606,6.45606 0 0 1 -1.44277,1.78233 0.61969,0.61969 0 0 0 -0.32411,0.64744 z m 0.76762,-7.8371 c -1.11765,0.01993 -2.2188,0.92366 -2.07748,1.7193 a 43.342,43.342 0 0 0 0.8693,4.41392 c 0.15451,0.53876 0.33211,0.51821 0.662,0.19722 a 10.671,10.671 0 0 0 1.46928,-2.068 1.2848,1.2848 0 0 0 0.45556,-0.94139 A 22.09315,22.09315 0 0 0 48.10965,9.0112 C 47.93432,8.51941 47.73316,8.17719 47.20481,8.3438 Z M 46.4249,27.00828 c -0.23068,-0.267 0.29352,-0.53445 -0.01441,-0.78348 a 1.46369,1.46369 0 0 0 -1.08479,0.59462 9.203,9.203 0 0 1 -0.17716,2.053 c -0.0603,0.98037 0.10141,1.15426 1.10472,1.42461 0.479,0.12909 0.93158,0.35172 1.42526,0.45275 0.73546,0.1505 0.84315,0.03971 0.70231,-0.72747 -0.234,-1.27468 -0.45225,-2.55225 -0.68057,-3.828 a 0.38739,0.38739 0 0 0 -0.40144,-0.41339 0.42441,0.42441 0 0 0 -0.47739,0.35876 1.46037,1.46037 0 0 1 -0.39653,0.8686 z m 4.507,14.92541 c -0.14821,-0.61018 -0.31372,-1.37912 -0.52529,-2.13516 -0.17051,-0.60932 -0.51385,-0.8883 -1.11565,-0.42186 a 1.00225,1.00225 0 0 1 -0.53514,0.16222 3.72368,3.72368 0 0 0 -1.867,0.96577 0.26229,0.26229 0 0 0 -0.02882,0.423 2.65,2.65 0 0 0 1.74515,1.232 c 0.671,0.0923 1.33072,0.26442 1.99858,0.38353 0.3726,0.06646 0.37101,-0.19284 0.32819,-0.6095 z m 7.96145,33.8616 a 1.70585,1.70585 0 0 0 0.28228,-0.11024 c 0.765,-0.52569 1.52937,-1.05242 2.28734,-1.58815 a 0.31379,0.31379 0 0 0 0.116,-0.23308 c -0.48935,-0.63555 -0.36107,-1.51293 -0.88071,-2.15279 -0.28788,-0.35454 -0.471,-0.35865 -0.72091,-0.04426 a 2.89812,2.89812 0 0 1 -0.89567,0.90555 1.547,1.547 0 0 0 -0.93576,2.22146 c 0.0089,0.02059 -0.0036,0.04992 0.004,0.07164 0.14548,0.41658 0.63125,0.52038 0.74345,0.92987 z M 51.13308,27.07157 a 5.71255,5.71255 0 0 1 -1.947,1.79658 0.33893,0.33893 0 0 0 -0.16172,0.2157 3.05749,3.05749 0 0 0 0.23326,1.68179 1.118,1.118 0 0 0 1.03591,0.34869 c 0.36871,0.02973 0.73639,0.07869 1.10557,0.09444 0.32809,0.014 0.61361,-0.11124 0.53643,-0.49256 -0.23745,-1.17293 -0.51179,-2.3384 -0.80245,-3.64464 z m 6.02763,25.65554 c 0.213,-0.20189 0.28343,-0.26431 0.349,-0.33147 2.27872,-2.33444 4.909,-3.14495 8.041,-1.89681 0.36526,0.14559 0.79894,0.55145 1.19414,0.0022 0.10128,0.29618 0.37145,0.31937 0.44767,0.09606 0.06689,-0.196 -0.2222,-0.31831 -0.46817,-0.3002 a 0.264,0.264 0 0 1 -0.19732,-0.04927 c -0.743,-0.9514 -1.82494,-0.80385 -2.84685,-0.96507 a 7.68844,7.68844 0 0 0 -2.52349,0.23878 4.53234,4.53234 0 0 0 -3.99598,3.20582 z m 4.93965,34.49921 A 2.19457,2.19457 0 0 0 63.839,85.94138 c 0.14385,-0.74335 -0.52024,-1.17769 -0.70581,-1.80062 a 3.84354,3.84354 0 0 0 -0.92023,0.34085 c -0.27363,0.05962 -0.51818,0.28307 -0.78985,0.31571 -0.97186,0.11673 -0.59116,0.72545 -0.45322,1.21652 0.0544,0.19365 0.22263,0.35468 0.26963,0.57471 a 0.66183,0.66183 0 0 0 0.86084,0.63778 z M 66.85348,76.77371 C 66.07686,81.467 62.72659,83.269 58.772,84.18806 a 1.33475,1.33475 0 0 0 0.3817,0.02973 6.23132,6.23132 0 0 0 2.2056,-0.17525 13.55809,13.55809 0 0 0 4.5547,-3.59733 4.08636,4.08636 0 0 0 0.93948,-3.67149 z m 3.50209,-18.05578 c -0.09587,0.43342 0.17019,0.5476 0.51456,0.49534 0.3933,-0.05966 0.773,-0.20753 1.1662,-0.2695 0.35174,-0.05546 0.37027,-0.18118 0.31795,-0.52161 a 7.21164,7.21164 0 0 1 -0.42079,-1.79558 c 0.02588,-0.28258 -0.03682,-0.712 -0.40986,-0.572 -0.35409,0.13287 -0.9938,-0.08887 -1.03307,0.61265 -0.03826,0.68393 -0.08945,1.36715 -0.13499,2.05071 z m -1.18343,1.237 c -0.36154,0.05125 -0.75187,-0.11648 -0.90751,0.25025 a 5.00643,5.00643 0 0 1 -2.38363,2.24746 4.528,4.528 0 0 1 -2.18532,0.94537 c -0.16039,0.0015 -0.36626,-0.02975 -0.34181,0.24077 a 0.32027,0.32027 0 0 0 0.32211,0.3248 1.8296,1.8296 0 0 0 0.71517,-0.05152 c 1.9749,-0.82162 3.89876,-1.71673 4.78099,-3.95716 z M 52.97992,42.69734 a 2.24139,2.24139 0 0 1 1.16684,-0.20765 c 0.326,-0.0154 0.31905,-0.26827 0.26817,-0.47178 -0.12544,-0.50171 -0.3001,-0.99092 -0.43355,-1.4909 -0.08845,-0.33132 -0.23811,-0.39 -0.49109,-0.16174 A 6.08338,6.08338 0 0 1 51.817,41.50656 c -0.4519,0.19178 -0.07847,0.48785 -0.12283,0.72879 -0.05333,0.28964 0.15058,0.30281 0.35365,0.29781 a 1.68665,1.68665 0 0 1 0.9321,0.16418 z M 50.24506,31.91655 c -0.23924,0.186 -0.81737,-0.21962 -0.71616,0.40084 a 4.92421,4.92421 0 0 0 0.392,1.50392 c 0.116,0.22543 0.22355,0.41079 0.47011,0.26265 a 6.16379,6.16379 0 0 0 1.91349,-1.55244 1.04453,1.04453 0 0 0 0.10919,-0.548 1.8637,1.8637 0 0 0 -0.48816,-0.04389 3.33036,3.33036 0 0 1 -1.68047,-0.02308 z M 72.66878,56.483 c 0.08313,0.369 0.19884,0.89934 0.323,1.42769 0.07246,0.30813 -0.0135,0.837 0.56091,0.5989 0.4046,-0.1677 1.34276,0.103 0.914,-0.93761 a 5.63419,5.63419 0 0 1 -0.44606,-1.49489 c -0.071,-0.65109 -0.427,-0.57848 -0.88352,-0.539 -0.55957,0.04841 -0.47945,0.4203 -0.46833,0.94491 z m -5.49646,-3.57071 a 1.31754,1.31754 0 0 0 -1.18639,-1.379 3.70467,3.70467 0 0 1 -1.05224,-0.37965 3.34371,3.34371 0 0 0 -2.313,-0.285 1.46637,1.46637 0 0 1 1.3397,1.40736 c 0.01512,0.155 0.1072,0.50826 0.32433,0.32381 0.26891,-0.22843 0.35567,-0.32224 0.45065,0.084 0.01455,0.06231 0.09571,0.07347 0.1722,0.02168 0.7903,-0.53499 1.52232,-0.15196 2.26476,0.20679 z m -2.915,5.08147 c 0.08358,0.72078 0.14207,1.33466 0.22891,1.94449 a 0.71486,0.71486 0 0 0 1.08633,0.61888 1.06609,1.06609 0 0 0 0.46435,-1.76283 2.90275,2.90275 0 0 0 -1.77954,-0.80055 z m -2.68571,-5.47461 c 0.0086,0.56279 0.73635,1.90257 0.92184,1.78453 a 1.73236,1.73236 0 0 0 0.69074,-1.44847 0.167,0.167 0 0 1 0.01067,-0.07109 0.758,0.758 0 0 0 -0.27409,-1.00331 0.86787,0.86787 0 0 0 -1.00139,-0.0698 0.65521,0.65521 0 0 0 -0.34771,0.80813 z M 45.09656,26.83247 a 10.86206,10.86206 0 0 0 -1.79341,1.41264 0.44391,0.44391 0 0 0 -0.02586,0.66694 3.51344,3.51344 0 0 0 1.33445,0.94984 c 0.17726,0.05979 0.35335,0.08215 0.337,-0.19075 a 11.27011,11.27011 0 0 1 0.14782,-2.83867 z M 64.594,55.503 a 2.14443,2.14443 0 0 0 1.80625,-1.16948 c 0.13,-0.313 0.54009,-0.66426 0.01506,-0.98118 a 0.88254,0.88254 0 0 0 -1.25488,0.267 1.57987,1.57987 0 0 0 -0.388,0.819 C 64.72856,54.78127 64.65922,55.12086 64.594,55.503 Z m -5.89774,22.9001 c -0.43512,0.40879 -0.83581,0.76555 -1.213,1.14563 a 1.53745,1.53745 0 0 0 -0.567,1.18481 0.36793,0.36793 0 0 0 0.57187,0.36534 c 0.79508,-0.30744 1.75853,-1.65124 1.20813,-2.69578 z m 8.74843,-25.6664 a 0.66588,0.66588 0 0 0 0.0063,0.20961 c 0.14593,0.36989 0.485,0.70482 -0.14014,1.0441 a 1.573,1.573 0 0 0 -0.30291,0.98885 0.99464,0.99464 0 0 0 0.62761,0.19348 c 0.52475,-0.15243 0.65483,0.27675 0.91241,0.53228 A 2.6609,2.6609 0 0 0 67.44469,52.7367 Z m -4.16,23.58417 A 1.02122,1.02122 0 0 0 62.10079,76.8 c -0.111,0.343 0.7442,0.74362 1.3908,0.68479 a 0.4732,0.4732 0 0 0 0.07147,0.0044 0.99194,0.99194 0 0 0 0.66177,-0.87735 c 0.05289,-0.38087 -0.39707,-0.27833 -0.6668,-0.29444 -0.07168,-0.0043 -0.14396,0.0014 -0.27338,0.0035 z m -5.3766,7.85144 a 11.14814,11.14814 0 0 1 -3.91585,-2.13017 c -0.0878,-0.07962 -0.20843,-0.16226 -0.305,-0.02041 a 0.25308,0.25308 0 0 0 0.08,0.32095 5.40227,5.40227 0 0 0 4.14081,1.82963 z M 61.02732,55.363 a 3.422,3.422 0 0 0 -0.98306,-1.2231 c -0.17806,-0.17477 -0.37954,-0.46886 -0.63122,-0.11424 -0.16833,0.23718 -0.36166,0.50753 -0.0053,0.7965 a 12.07823,12.07823 0 0 1 0.9386,0.89678 0.27075,0.27075 0 0 0 0.43009,0.05187 0.46641,0.46641 0 0 0 0.25088,-0.40781 z M 61.848,74.85461 c 1.5555,0.21287 1.70379,-0.49027 1.9354,-1.26183 a 0.35326,0.35326 0 0 0 -0.08955,-0.45679 c -0.18907,-0.09871 -0.27855,0.085 -0.40937,0.19083 A 10.66738,10.66738 0 0 0 61.848,74.85461 Z m 4.96467,1.36289 a 3.2778,3.2778 0 0 0 -0.40251,-3.06625 c -0.072,-0.07192 -0.15149,-0.21049 -0.29,-0.13062 -0.1913,0.11029 -0.0527,0.26533 -0.0069,0.37391 a 18.02142,18.02142 0 0 1 0.69936,2.82296 z M 65.92633,56.47938 a 1.74834,1.74834 0 0 0 1.23589,0.46685 0.56633,0.56633 0 0 0 0.55871,-0.73613 C 67.6581,55.70937 67.26362,55.92449 67.05915,55.97385 a 6.81516,6.81516 0 0 0 -1.13282,0.50553 z m -5.33055,22.71706 c 0.03651,0.2996 0.08282,0.56038 0.09613,0.82283 0.01284,0.25351 0.0798,0.4167 0.37639,0.4018 a 0.45193,0.45193 0 0 0 0.49556,-0.417 1.11006,1.11006 0 0 0 -0.53188,-1.038 0.30861,0.30861 0 0 0 -0.38335,-0.10006 0.58773,0.58773 0 0 0 -0.05285,0.33043 z m 8.46445,-25.9079 C 68.9087,51.70223 68.05583,50.7813 67.21234,51.19516 a 5.73358,5.73358 0 0 1 1.8479,2.09338 z m 0.51822,3.659 c -0.37518,1.29213 -0.37518,1.29213 -0.12291,1.79387 a 4.38782,4.38782 0 0 0 0.12291,-1.79383 z"
       id="path4"
       inkscape:connector-curvature="0" />
    <path
       d="m 71.7317,67.15693 c 0.08717,0.46849 -0.273,0.89735 0.08187,1.35109 0.15243,0.19486 -0.38424,0.52488 -0.71464,0.50865 a 4.04507,4.04507 0 0 0 -1.05048,0.13316 c -1.54127,0.34035 -3.07915,0.69611 -4.61866,1.04449 a 0.26719,0.26719 0 0 1 -0.35821,-0.09781 c 1.83343,-0.33381 3.51361,-1.14343 5.36825,-1.31637 A 1.22146,1.22146 0 0 0 71.535,67.706 0.50723,0.50723 0 0 1 71.7317,67.15693 Z"
       id="path6"
       inkscape:connector-curvature="0" />
    <path
       d="m 70.43452,32.39905 a 0.75,0.75 0 0 1 -0.01473,0.56063 16.62936,16.62936 0 0 0 -0.918,2.96739 4.74241,4.74241 0 0 1 0.297,-1.97346 c 0.13945,-0.5032 0.04392,-0.72075 -0.522,-0.51345 a 9.737,9.737 0 0 1 -1.22127,0.36753 1.02886,1.02886 0 0 0 -0.85368,0.99272 c -0.14773,-0.60249 -0.45889,-0.51427 -0.80377,-0.43246 a 8.43209,8.43209 0 0 1 -2.32946,0.60927 c 0.75957,-0.28922 1.51992,-0.57644 2.27851,-0.8682 a 1.55732,1.55732 0 0 0 1.25107,-1.16492 c -0.01216,0.55889 0.16519,0.71573 0.61286,0.48163 a 1.74623,1.74623 0 0 1 0.86405,-0.27246 1.24354,1.24354 0 0 0 1.32078,-0.78809 z"
       id="path8"
       inkscape:connector-curvature="0" />
    <path
       d="m 64.66043,32.78439 a 31.06263,31.06263 0 0 1 5.2201,-1.38085 c -0.44569,0.53681 -1.229,0.34064 -1.68126,0.77674 -0.5281,0.50917 -1.12277,-0.02764 -1.68926,0.22154 a 8.59691,8.59691 0 0 1 -1.84958,0.38257 z"
       id="path10"
       inkscape:connector-curvature="0" />
    <path
       d="m 71.46665,29.67645 -4.602,1.50209 -0.05782,-0.18829 c 1.56634,-0.39472 2.97149,-1.31853 4.6016,-1.50394 z"
       id="path12"
       inkscape:connector-curvature="0" />
    <path
       d="m 65.95055,37.16976 a 5.017,5.017 0 0 1 1.92933,-0.47214 c -0.6438,0.14053 -1.1711,0.75492 -1.92933,0.47214 z"
       id="path14"
       inkscape:connector-curvature="0" />
    <path
       d="m 70.39582,32.36519 a 1.27788,1.27788 0 0 1 0.511,-1.37828 2.19757,2.19757 0 0 1 -0.47239,1.412 z"
       id="path16"
       inkscape:connector-curvature="0" />
    <path
       d="m 55.1853,27.77718 a 5.84712,5.84712 0 0 1 3.58891,-0.77515 c -1.22438,0.13408 -2.38821,0.53632 -3.58891,0.77515 z"
       id="path18"
       inkscape:connector-curvature="0" />
    <path
       d="m 58.64044,25.22333 a 42.96806,42.96806 0 0 0 -4.24,1.08924 c 1.36945,-0.5294 2.69124,-1.23957 4.24,-1.08924 z"
       id="path20"
       inkscape:connector-curvature="0" />
    <path
       d="m 54.0974,55.1253 a 5.97221,5.97221 0 0 1 5.6115,2.7388 7.02728,7.02728 0 0 1 1.25039,2.9269 8.56891,8.56891 0 0 0 0.32857,1.01654 8.22912,8.22912 0 0 1 -0.49889,4.91909 8.96439,8.96439 0 0 1 -0.75361,1.88346 5.04539,5.04539 0 0 1 -2.27174,2.43836 21.0228,21.0228 0 0 1 -2.71232,1.21916 6.93346,6.93346 0 0 1 -4.29009,-0.33895 13.10482,13.10482 0 0 1 -2.232,-0.91424 6.75961,6.75961 0 0 1 -3.14378,-4.32766 10.35981,10.35981 0 0 1 0.468,-5.7027 c 0.80686,-2.28931 2.26389,-4.27271 4.87564,-4.91972 a 3.16907,3.16907 0 0 0 0.68811,-0.35868 5.15406,5.15406 0 0 1 2.68022,-0.58036 z m 5.48991,4.49689 0.016,0.01759 a 1.66832,1.66832 0 0 0 -0.64937,-1.5061 c -1.124,-1.17223 -2.30166,-2.32833 -4.15544,-2.15512 a 17.83552,17.83552 0 0 1 -1.87081,0.03133 1.75393,1.75393 0 0 0 -0.82443,0.19765 c -0.619,0.30709 -1.236,0.621 -1.87031,0.894 a 6.2663,6.2663 0 0 0 -3.70921,4.169 15.36867,15.36867 0 0 0 -0.52331,3.36605 5.84829,5.84829 0 0 0 1.54021,4.55687 c 0.33368,0.363 0.5128,0.22727 0.72807,-0.05646 0.24181,-0.31873 0.47093,-0.64707 0.80933,-1.11456 a 2.1868,2.1868 0 0 1 -0.64669,1.35491 c -0.26371,0.46469 -0.24476,0.698 0.26539,0.90529 0.81353,0.33047 1.58479,0.78713 2.41981,1.03718 a 6.08784,6.08784 0 0 0 3.56623,0.35656 15.59818,15.59818 0 0 0 3.4215,-1.53821 c 0.30809,-0.1785 0.875,-0.47413 0.32172,-0.98945 -1.24792,-1.16226 -1.97328,-2.72524 -3.08865,-3.98945 a 0.542,0.542 0 0 1 0.37945,-0.89243 12.05455,12.05455 0 0 1 2.95248,0.22867 1.25292,1.25292 0 0 1 0.737,1.379 c -0.22749,0.46 -0.22023,0.977 -0.45251,1.4223 -0.06326,0.12132 0.0074,0.32958 -0.17439,0.36384 -0.32166,0.06066 -0.76709,0.05712 -0.79735,0.42362 -0.03107,0.37649 0.50785,0.444 0.70913,0.73981 a 1.48737,1.48737 0 0 0 0.324,0.26239 c 0.29863,-0.69 0.69238,-1.28428 0.99335,-1.93367 A 15.84746,15.84746 0 0 0 60.44112,65.36043 5.74292,5.74292 0 0 0 60.2088,60.77027 1.74863,1.74863 0 0 0 59.58731,59.62219 Z M 56.13547,65.045 c 0.48237,0.58284 0.87738,1.0805 1.29649,1.557 0.18186,0.20678 0.40439,0.53038 0.71139,0.32528 a 1.83316,1.83316 0 0 0 0.649,-1.221 0.63692,0.63692 0 0 0 -0.606,-0.59743 4.24168,4.24168 0 0 0 -2.05088,-0.06385 z"
       id="path22"
       inkscape:connector-curvature="0" />
    <path
       d="m 62.74872,79.17868 c 0.71509,-0.13089 0.95419,0.47678 1.53272,0.87269 -0.9008,0.10419 -1.00873,-0.70705 -1.53272,-0.87269 z"
       id="path24"
       inkscape:connector-curvature="0" />
    <path
       d="m 53.03831,56.427 c 0.6149,0.31411 0.34974,0.97887 0.62833,1.54225 a 1.8408,1.8408 0 0 1 2.32609,-1.27468 1.509,1.509 0 0 1 0.75955,2.324 c -0.64669,0.90339 -1.4005,1.70592 -2.11585,2.5459 -0.43956,0.51616 -0.66394,0.48382 -0.92947,-0.127 -0.30559,-0.703 -0.04892,-1.464 -0.28217,-2.18985 A 8.0815,8.0815 0 0 1 53.03831,56.427 Z m 1.02545,4.37209 a 9.81887,9.81887 0 0 0 1.146,-0.928 1.81782,1.81782 0 0 0 0.92985,-1.41163 c 0.06783,-0.2994 0.36323,-0.66019 -0.02975,-0.98519 a 1.14324,1.14324 0 0 0 -1.14149,-0.0019 1.30927,1.30927 0 0 0 -0.70952,1.07 c -0.24173,0.71787 -0.02185,1.46608 -0.19509,2.2568 z"
       id="path26"
       inkscape:connector-curvature="0" />
    <path
       d="m 54.958,70.78644 a 2.03541,2.03541 0 0 1 -0.7028,-0.0915 C 54.03859,70.6372 53.46285,70.12051 53.70766,70.99749 A 0.2025,0.2025 0 0 1 53.4125,71.2 a 0.48685,0.48685 0 0 1 -0.41,-0.51782 c 0.01521,-0.12522 -0.04922,-0.33782 0.211,-0.19183 0.08591,0.04822 0.16825,0.09973 0.19529,-0.05591 A 0.14813,0.14813 0 0 0 53.2657,70.23933 c -0.55622,-0.11046 -0.20135,-0.55237 -0.09623,-0.57956 0.47736,-0.12337 0.34031,-0.49712 0.47008,-0.79158 a 5.68075,5.68075 0 0 0 0.30275,-2.49666 c -0.0091,-0.5189 0.21508,-0.59364 0.61962,-0.373 a 4.3283,4.3283 0 0 1 2.56434,2.73168 0.776,0.776 0 0 1 -0.11008,0.61108 3.42783,3.42783 0 0 1 -2.05818,1.44515 z m -0.651,-1.43131 c 0.007,0.22324 -0.12238,0.637 0.43275,0.67541 A 2.23676,2.23676 0 0 0 56.31062,68.87318 1.99046,1.99046 0 0 0 54.749,67.02241 c -0.144,0.0085 -0.27305,0.08648 -0.24171,0.19977 0.19561,0.70699 -0.30687,1.33257 -0.20035,2.13295 z"
       id="path28"
       inkscape:connector-curvature="0" />
    <path
       d="m 48.03282,64.59432 a 0.64164,0.64164 0 0 0 -0.43135,-0.22511 c -0.14814,-0.0071 -0.41321,0.03746 -0.31532,-0.2262 0.0506,-0.13627 0.18543,-0.4291 0.48022,-0.20229 a 2.99669,2.99669 0 0 0 2.40876,0.25306 1.1232,1.1232 0 0 1 1.19316,0.53447 0.98776,0.98776 0 0 1 -0.35965,1.304 8.991,8.991 0 0 1 -1.77055,1.54894 1.5635,1.5635 0 0 1 -2.18873,-0.4647 1.67276,1.67276 0 0 1 0.6786,-2.42116 2.32689,2.32689 0 0 1 0.30486,-0.10101 z m -0.47316,1.65447 a 0.95744,0.95744 0 0 0 1.30588,0.79965 5.94025,5.94025 0 0 0 1.76077,-1.53435 c 0.14682,-0.16114 0.33836,-0.39067 -0.13751,-0.47285 a 4.46489,4.46489 0 0 0 -2.69,0.52812 0.63917,0.63917 0 0 0 -0.23914,0.67942 z"
       id="path30"
       inkscape:connector-curvature="0" />
    <path
       d="m 53.1358,66.116 c -0.69024,1.25141 -0.10835,2.7882 -0.98961,4.02348 a 0.88867,0.88867 0 0 1 -1.03107,0.52742 3.89932,3.89932 0 0 0 -0.778,-0.09379 1.21243,1.21243 0 0 1 -0.99878,-1.95245 10.97324,10.97324 0 0 1 3.282,-2.96568 C 52.959,65.44015 53.22352,65.64441 53.1358,66.116 Z m -1.14563,0.71295 a 15.34219,15.34219 0 0 0 -2.05033,2.14486 0.45046,0.45046 0 0 0 -0.11065,0.52582 1.9669,1.9669 0 0 0 1.30412,0.44952 0.56606,0.56606 0 0 0 0.62047,-0.49065 4.98355,4.98355 0 0 0 0.23638,-2.62959 z"
       id="path32"
       inkscape:connector-curvature="0" />
    <path
       d="m 59.58731,59.62219 a 4.89952,4.89952 0 0 1 0.12715,1.59186 2.5719,2.5719 0 0 1 -2.45773,2.07326 7.1654,7.1654 0 0 1 -1.95293,-0.02419 C 54.82968,63.11441 54.88093,62.9324 54.99919,62.59876 a 4.26494,4.26494 0 0 1 1.38757,-2.18556 6.7803,6.7803 0 0 1 2.304,-1.15147 2.11586,2.11586 0 0 1 0.91385,0.37936 z m -2.68666,3.00937 c 0.25,-0.0039 0.44352,-0.0046 0.63685,-0.01039 a 1.67313,1.67313 0 0 0 1.51756,-2.06 C 58.95866,60.17943 58.7246,59.97869 58.38357,60.15346 A 5.00232,5.00232 0 0 0 56.36786,61.586 c -0.19083,0.27714 -0.666,0.54726 -0.48526,0.88711 0.20364,0.38279 0.7108,0.07611 1.01804,0.15845 z"
       id="path34"
       inkscape:connector-curvature="0" />
    <path
       d="m 52.82372,58.76147 a 19.94334,19.94334 0 0 0 0.01247,3.26237 c 0.10438,0.47686 -0.279,0.44925 -0.61148,0.26428 a 5.1186,5.1186 0 0 1 -1.65971,-1.65453 8.08906,8.08906 0 0 1 -0.6895,-1.40948 2.25,2.25 0 0 1 0.73667,-2.08477 1.68923,1.68923 0 0 1 2.27293,1.45444 0.47836,0.47836 0 0 1 -0.06138,0.16769 z m -0.61679,0.32235 a 1.23074,1.23074 0 0 0 -0.0901,-0.58322 0.80032,0.80032 0 0 0 -0.81979,-0.66641 c -0.37218,-0.09531 -0.49225,0.23131 -0.62472,0.51918 a 3.27417,3.27417 0 0 0 1.04945,2.71043 c 0.25645,0.11215 0.40834,-0.034 0.37719,-0.247 a 11.72074,11.72074 0 0 1 0.10798,-1.73298 z"
       id="path36"
       inkscape:connector-curvature="0" />
    <path
       d="m 49.04305,60.27928 a 0.98506,0.98506 0 0 0 0.57267,0.68388 5.27756,5.27756 0 0 1 1.58493,1.72654 c 0.14857,0.30367 0.09564,0.55885 -0.23614,0.60214 -1.08238,0.14118 -2.144,0.59775 -3.26754,0.04114 a 0.99373,0.99373 0 0 1 -0.58681,-1.33654 16.52,16.52 0 0 1 1.007,-2.1119 0.46709,0.46709 0 0 1 0.521,-0.30548 0.37753,0.37753 0 0 1 0.27739,0.44255 0.23468,0.23468 0 0 0 0.154,0.28356 z m 1.23852,2.43736 A 3.9423,3.9423 0 0 0 48.94988,61.385 c -0.20875,-0.14974 -0.465,-0.4754 -0.65531,-0.293 a 1.90347,1.90347 0 0 0 -0.50636,1.08037 0.50973,0.50973 0 0 0 0.47453,0.53845 5.43694,5.43694 0 0 0 2.01883,0.0058 z"
       id="path38"
       inkscape:connector-curvature="0" />
    <path
       d="m 53.71307,63.368 a 9.52426,9.52426 0 0 0 1.02615,0.9757 c 0.28321,0.28873 -0.36175,0.25223 -0.30831,0.55456 0.02373,0.13415 -0.137,0.08184 -0.20069,0.04192 a 3.04535,3.04535 0 0 0 -1.199,-0.35328 0.46064,0.46064 0 0 1 -0.33973,-0.52986 c -0.04034,-0.28412 0.24588,-0.14768 0.41983,-0.16377 A 0.50976,0.50976 0 0 0 53.71307,63.368 Z"
       id="path40"
       inkscape:connector-curvature="0" />
    <path
       d="m 49.06954,60.30518 a 2.67246,2.67246 0 0 1 0.21966,-0.92313 2.97958,2.97958 0 0 1 0.654,1.157 1.16767,1.16767 0 0 0 -0.9,-0.25987 z"
       id="path42"
       inkscape:connector-curvature="0" />
  </g>
</svg>
